<svg xmlns="http://www.w3.org/2000/svg" xmlns:xlink="http://www.w3.org/1999/xlink" viewBox="0 0 920 670" version="1.0"><defs><linearGradient id="d" y2="317.36" xlink:href="#a" gradientUnits="userSpaceOnUse" x2="412.09" y1="317.36" x1="520.75"/><linearGradient id="a"><stop offset="0"/><stop offset="1" stop-color="#333"/></linearGradient><linearGradient id="e" y2="347.86" xlink:href="#b" gradientUnits="userSpaceOnUse" x2="400" y1="416.48" x1="337.14"/><linearGradient id="b"><stop offset="0" stop-color="#fff"/><stop offset=".4" stop-color="#ff0"/><stop offset="1" stop-color="#f60"/></linearGradient><linearGradient id="g" y2="388.36" gradientUnits="userSpaceOnUse" x2="369.21" gradientTransform="translate(47.153 740.13) scale(.8724)" y1="370.34" x1="369.21"><stop offset="0" stop-color="#fff"/><stop offset="1" stop-color="#fff" stop-opacity="0"/></linearGradient><linearGradient id="h" y2="1081.7" gradientUnits="userSpaceOnUse" x2="369.54" gradientTransform="matrix(1 -.00228 .00228 1 38.884 13.155)" y1="1094.9" x1="369.54"><stop offset="0" stop-color="#a00"/><stop offset="1" stop-color="#333"/></linearGradient><linearGradient id="i" y2="1089.8" xlink:href="#a" gradientUnits="userSpaceOnUse" x2="323.57" y1="1042" x1="323.57"/><linearGradient id="j" y2="1059.2" gradientUnits="userSpaceOnUse" x2="300.77" y1="1066.4" x1="332.77"><stop offset="0" stop-color="#fff"/><stop offset="1" stop-color="gray"/></linearGradient><filter id="c" height="1.875" width="1.108" color-interpolation-filters="sRGB" y="-.437" x="-.054"><feGaussianBlur stdDeviation="1.197"/></filter><filter id="f" height="2.002" width="2.002" color-interpolation-filters="sRGB" y="-.501" x="-.501"><feGaussianBlur stdDeviation="13.119"/></filter></defs><path d="M478.81 386.52c0 1.813-11.872 3.283-26.516 3.283-14.645 0-26.517-1.47-26.517-3.283s11.872-3.283 26.517-3.283 26.516 1.47 26.516 3.283z" transform="matrix(6.51688 .0357 -.28947 7.19102 -2332.901 -2219.908)" opacity=".404" filter="url(#c)"/><path d="M424.16 302.59l-1.75.813 1.625 4.187-9.063-3.188-2.874 7.907 13.719 3.093.437-1.312 6.031 6.625 1.969 2.188 4.094-12.689 4.406 1.438.75-2.375-4.375-1.438-2.375-.78-.781 2.374-2.938 8.938-6.156-6.844.469-1.938-3.188-7zm87.719 12.875l-5 5.875-.094 1.969-7.844 4.812-.312-9.375-.063-2.5-2.5.063-4.624.156.093 2.5 4.625-.156.344 13.312 2.5-1.531 7.656-4.657.031 1.375 14.062.875-.53-8.375-9.626.532 2.75-3.594-1.469-1.281z" transform="matrix(7.5467 0 0 7.2076 -3059.996 -1902.26)" fill="url(#d)"/><path d="M400 379.29c0 17.358-14.071 31.429-31.429 31.429s-31.429-14.071-31.429-31.429 14.071-31.429 31.429-31.429S400 361.932 400 379.29z" transform="matrix(6.463 1.39366 -1.5768 6.01287 -1318.746 -2418.396)" fill="url(#e)"/><path d="M400 379.29c0 17.358-14.071 31.429-31.429 31.429s-31.429-14.071-31.429-31.429 14.071-31.429 31.429-31.429S400 361.932 400 379.29z" transform="matrix(6.40564 .79586 -.87602 6.05597 -1562.957 -2217.593)" fill="url(#e)"/><path d="M400 379.29c0 17.358-14.071 31.429-31.429 31.429s-31.429-14.071-31.429-31.429 14.071-31.429 31.429-31.429S400 361.932 400 379.29z" transform="matrix(2.62037 .32557 -.31409 2.17129 -454.648 -528.203)" opacity=".783" filter="url(#f)" fill="#fff"/><path d="M374.585 267.619c-52.28-5.082-106.41-.44-106.41-.44s-5.924 78.955 18.708 110.292c6.814 8.67 20.114 12.69 31.67 16.373 28.778 9.173 64.823 15.338 91.978 4.079 23.363-9.688 24.268-39.52 43.344-54.29 1.808-1.4 4.01-2.665 6.458-3.036 6.498-.986 13.789-.08 19.777 2.458 2.256.955 4.021 2.713 5.368 4.505 14.204 18.908 6.599 47.907 26.385 62.953 22.997 17.49 59.521 20.342 89.889 18.519 12.195-.733 26.168-1.364 35.205-8.064 32.667-24.219 49.39-101.83 49.39-101.83s-130.361-45.179-186.355-23.154c-5.33 2.097-8.896 12.714-8.896 12.714s-4.046 2.095-6.359 2.351c-6.555.73-13.66-.153-19.777-2.457-2.158-.814-5.466-3.82-5.466-3.82s-.423-11.113-4.969-14.438c-17.909-13.093-48.573-19.667-79.945-22.716z"/><g opacity=".577" fill="#fff"><path d="M379.398 284.391c-38.33-4.512-95.447-1.474-95.447-1.474s-.872 51.623 9.494 75.807c1.055 2.462 2.665 4.94 4.909 6.842-10.503-25.968-9.755-79.104-9.755-79.104s78.859-4.008 116.788 4.273c4.317.939 8.888 1.933 13.37 3.145-7.427-3.347-16.238-5.27-24.236-7.017-4.486-.98-9.65-1.829-15.125-2.473zM574.189 308.594c38.259 5.004 92.495 21.879 92.495 21.879s-13.83 50.013-30.702 70.812c-1.717 2.118-3.975 4.115-6.68 5.402 17.512-22.487 31.89-73.93 31.89-73.93s-74.934-23.117-113.877-24.387c-4.431-.148-9.124-.305-13.791-.23 8.115-1.416 17.161-1.12 25.374-.853 4.606.15 9.828.592 15.293 1.307z"/></g><path d="M369.53 1063.2c-14.005 0-25.722 3.661-28.653 8.56.626 1.67 1.373 3.158 2.29 4.226 1.193 1.39 3.255 1.809 5.044 2.208 4.452.995 9.91 1.292 13.686-1.308 3.248-2.238 2.756-7.559 5.261-10.605.238-.289.519-.562.873-.682a4.736 4.736 0 012.971 0c.354.12.662.393.9.682 2.505 3.046 2.013 8.367 5.261 10.605 3.776 2.6 9.233 2.303 13.686 1.308 1.789-.4 3.85-.818 5.044-2.208.917-1.068 1.664-2.556 2.29-4.226-2.931-4.899-14.648-8.56-28.653-8.56z" opacity=".298" fill="url(#g)" transform="matrix(6.64132 .8252 -.79957 5.52772 -1131.965 -5853.322)"/><path d="M462.704 525.509c-37.083 5.555-70.968-17.558-90.73-60.92 25.296 13.11 54.248 14.77 85.83 10.042 31.64-4.74 59.776-18.963 81.885-39.229-10.952 48.011-39.875 84.554-76.985 90.11z" opacity=".856" fill="#fff"/><path d="M412.56 1107.1c-6.56 1.01-12.9-2.549-16.598-8.493 4.548 1.676 9.92 2.264 15.506 1.403 5.596-.862 10.53-3.029 14.365-6.004-1.735 6.788-6.71 12.083-13.273 13.094z" opacity=".856" fill="url(#h)" transform="matrix(5.3922 .2947 -.10536 5.97503 -1648.763 -6217.198)"/><g><path d="M319.07 1042c-7.13 0-21.094 4.281-21.094 4.281l3.281 14.781c-4.357 1.674-7.062 3.954-7.062 6.438 0 5.16 11.555 9.344 25.78 9.344s25.75-4.184 25.75-9.344c0-2.786-3.387-5.288-8.718-7l3.156-14.22S326.2 1042 319.07 1042z" fill="url(#i)" transform="matrix(6.34323 1.14767 -1.23834 5.8788 -210.74 -6438.68)"/><path d="M300.77 1059.2l1.906 8.531c4.577 1.711 10.626 2.781 17.281 2.781 5.744 0 11.031-.78 15.312-2.093l1.875-8.438c-4.552 1.69-10.57 2.75-17.188 2.75-7.618 0-14.468-1.368-19.188-3.531z" fill="url(#j)" transform="matrix(6.34323 1.14767 -1.23834 5.8788 -210.74 -6438.68)"/><path d="M385.591 56.462c32.445 19.81 77.232 36.717 128.382 46.168 51.23 9.074 99.588 9.019 137.691 1.972-39.838 2.512-87.192 2.163-136.728-6.543-49.431-9.2-93.454-25.383-129.345-41.597z" opacity=".346" fill="#fff"/></g><path d="M437.22 426.083s4.605 19.318 12.954 19.962c8.801.677 17.221-18.66 17.221-18.66s-9.53 10.597-16.003 10.247c-6.28-.339-14.171-11.549-14.171-11.549z" opacity=".496"/></svg>